PathFileType	4	(X/Y/Z)	0_coords_data.trc
DataRate	CameraRate	NumFrames	NumMarkers	Units	OrigDataRate	OrigDataStartFrame	OrigNumFrames
30.0	30.0	4	21	m	30.0	1	65
Frame#	Time	THUMB_TIP	THUMB_IP	THUMB_MCP	THUMB_CMC	INDEX_TIP	INDEX_DIP	INDEX_PIP	INDEX_MCP	MIDDLE_TIP	MIDDLE_DIP	MIDDLE_PIP	MIDDLE_MCP	RING_TIP	RING_DIP	RING_PIP	RING_MCP	PINKY_TIP	PINKY_DIP	PINKY_PIP	PINKY_MCP	WRIST
X1	Y1	Z1	X2	Y2	Z2	X3	Y3	Z3	X4	Y4	Z4	X5	Y5	Z5	X6	Y6	Z6	X7	Y7	Z7	X8	Y8	Z8	X9	Y9	Z9	X10	Y10	Z10	X11	Y11	Z11	X12	Y12	Z12	X13	Y13	Z13	X14	Y14	Z14	X15	Y15	Z15	X16	Y16	Z16	X17	Y17	Z17	X18	Y18	Z18	X19	Y19	Z19	X20	Y20	Z20	X21	Y21	Z21
0	0.0	0.03299349975585938	-0.026693099975585936	0.9377150268554687	0.027023700714111327	-0.04566889953613281	0.956510009765625	0.013537699699401856	-0.057318500518798825	0.9846400146484375	0.003920779943466186	-0.025103200912475587	0.9986729736328125	-0.0015491700172424311	-0.04736579895019531	0.9684819946289063	0.00996677017211914	-0.05013309860229492	0.9517930297851562	0.003215529918670654	-0.055436100006103516	0.9298800048828125	-0.03582609939575195	-0.054568000793457035	0.9490430297851562	0.009583259582519531	-0.03100130081176758	0.9683189697265625	0.013952300071716309	-0.02952720069885254	0.9570079956054688	0.010043399810791016	-0.030924800872802735	0.928739990234375	-0.03698249816894531	-0.030838600158691408	0.9395390014648437	0.007027009963989258	-0.014349699974060059	0.9700430297851562	0.012490400314331055	-0.0106899995803833	0.9650479736328125	0.017965499877929687	-0.008807250022888184	0.9368829956054687	-0.02947960090637207	-0.006229450225830078	0.9378709716796875	-0.0014200799465179442	0.004749889850616455	0.9747340087890625	0.010237000465393066	0.00575255012512207	0.964906982421875	0.014262399673461913	0.010946200370788575	0.943051025390625	-0.021671100616455077	0.0175216007232666	0.9405859985351562	-0.02776759910583496	-0.000389340013265609	1.0209000244140625
1	0.03333333333333333	0.03373450088500977	-0.025109500885009767	0.9387789916992187	0.027835399627685546	-0.04463790130615235	0.956989013671875	0.01417389965057373	-0.05653900146484375	0.9846119995117187	0.004818749904632568	-0.024376699447631836	0.9986530151367188	-0.0009303699731826781	-0.046362899780273435	0.9690599975585937	0.01094159984588623	-0.049124000549316406	0.9521959838867188	0.00450186014175415	-0.05404949951171875	0.929875	-0.034742298126220705	-0.05372439956665039	0.9488469848632812	0.010572600364685058	-0.029753400802612306	0.9695440063476563	0.014728500366210937	-0.02849930000305176	0.9578410034179687	0.011394800186157227	-0.029668899536132814	0.9288300170898437	-0.03583409881591797	-0.030121299743652345	0.9393619995117187	0.008451740264892578	-0.013600099563598632	0.9702880249023438	0.013383999824523925	-0.0099339599609375	0.9662689819335938	0.020002399444580078	-0.007891389846801758	0.9383560180664062	-0.027697500228881837	-0.005590129852294922	0.9377069702148437	-0.00040234500169754003	0.0055588698387146	0.9750449829101563	0.011520000457763671	0.006585130214691162	0.9667949829101562	0.016433300018310545	0.01174489974975586	0.9450029907226563	-0.019445499420166015	0.018225500106811524	0.940552978515625	-0.02701609992980957	0.000508177995681762	1.020489990234375
2	0.06666666666666667	0.03387110137939453	-0.02359860038757324	0.9392960205078125	0.028170900344848634	-0.043600799560546875	0.956801025390625	0.014303799629211425	-0.05570790100097656	0.98439697265625	0.005029489994049072	-0.023599199295043945	0.9983170166015625	0.000156470999121665	-0.045221500396728516	0.968594970703125	0.011428099632263183	-0.04797760009765625	0.951780029296875	0.005106679916381836	-0.05253659820556641	0.9293330078125	-0.03418080139160156	-0.05270130157470703	0.94847900390625	0.01086400032043457	-0.0294281005859375	0.9672890014648438	0.015227499961853028	-0.027530099868774412	0.9577659912109375	0.012049400329589843	-0.028238800048828124	0.9287249755859375	-0.035138500213623046	-0.02921820068359375	0.9387890014648438	0.009212889671325684	-0.013190199851989746	0.9698619995117187	0.013851799964904786	-0.009139249801635742	0.966802978515625	0.021117700576782226	-0.0068052301406860355	0.93910498046875	-0.02668910026550293	-0.00464153003692627	0.9373200073242187	0.00017509500682353902	0.006710490226745605	0.9759580078125	0.01195400047302246	0.007340950012207031	0.9675250244140625	0.017535400390625	0.012642900466918945	0.9457490234375	-0.01819770050048828	0.019096900939941406	0.9403579711914063	-0.026750900268554687	0.001384050011634826	1.0199199829101562
3	0.1	0.03374480056762695	-0.022525199890136717	0.9389439697265625	0.02805340003967285	-0.042972400665283204	0.9562509765625	0.014185500144958497	-0.05510160064697266	0.9839169921875	0.004918970108032227	-0.02317359924316406	0.9982429809570312	-0.0006162930130958551	-0.045154300689697266	0.9673250122070313	0.011348299980163574	-0.04712879943847656	0.9508720092773437	0.005176780223846435	-0.05143009948730469	0.9286890258789062	-0.03418190002441406	-0.05180569839477539	0.947906982421875	0.010877599716186523	-0.028830799102783203	0.9669860229492188	0.01511460018157959	-0.026851999282836915	0.957802001953125	0.012194199562072754	-0.02722990036010742	0.9285170288085938	-0.03516299819946289	-0.028295299530029298	0.9384000244140625	0.009830129623413087	-0.012759799957275391	0.9694409790039062	0.013960700035095214	-0.008557689666748048	0.9672509765625	0.021530799865722657	-0.006005720138549804	0.9393389892578125	-0.026368799209594725	-0.003817209959030151	0.9370759887695312	0.000415073007345199	0.007265359878540039	0.9756849975585937	0.012339400291442872	0.007844719886779785	0.9677009887695313	0.018036899566650392	0.013184300422668457	0.9462459716796875	-0.01745509910583496	0.019915599822998047	0.9402349853515625	-0.026614599227905274	0.001889449954032898	1.019530029296875
